<svg width="25" height="24" viewBox="0 0 25 24" fill="none" xmlns="http://www.w3.org/2000/svg">
<path d="M5.56107 21.0451L6.00191 20.4383L5.56107 21.0451ZM4.45491 19.9389L5.06168 19.4981L4.45491 19.9389ZM20.5451 19.9389L19.9383 19.4981L20.5451 19.9389ZM19.4389 21.0451L19.8798 21.6518L19.4389 21.0451ZM19.4389 4.95492L19.8798 4.34815L19.4389 4.95492ZM20.5451 6.06107L19.9383 6.50191L20.5451 6.06107ZM5.56107 4.95492L6.00191 5.56168H6.00191L5.56107 4.95492ZM4.45491 6.06107L5.06168 6.50191L4.45491 6.06107ZM19.7178 16.0616L19.6005 15.3208H19.6005L19.7178 16.0616ZM15.5616 20.2178L14.8208 20.1005V20.1005L15.5616 20.2178ZM14.75 5C14.75 5.41421 15.0858 5.75 15.5 5.75C15.9142 5.75 16.25 5.41421 16.25 5H14.75ZM16.25 2C16.25 1.58579 15.9142 1.25 15.5 1.25C15.0858 1.25 14.75 1.58579 14.75 2H16.25ZM8.75 5C8.75 5.41421 9.08579 5.75 9.5 5.75C9.91421 5.75 10.25 5.41421 10.25 5H8.75ZM10.25 2C10.25 1.58579 9.91421 1.25 9.5 1.25C9.08579 1.25 8.75 1.58579 8.75 2H10.25ZM21.4711 16L22.2206 16.0257L21.4711 16ZM15.5 21.9711L15.5257 22.7206L15.5 21.9711ZM12.5 21.25C10.6084 21.25 9.24999 21.249 8.19804 21.135C7.16013 21.0225 6.50992 20.8074 6.00191 20.4383L5.12023 21.6518C5.92656 22.2377 6.87094 22.5 8.03648 22.6263C9.18798 22.751 10.6418 22.75 12.5 22.75V21.25ZM2.75 13C2.75 14.8582 2.74897 16.312 2.87373 17.4635C3.00001 18.6291 3.26232 19.5734 3.84815 20.3798L5.06168 19.4981C4.69259 18.9901 4.47745 18.3399 4.365 17.302C4.25103 16.25 4.25 14.8916 4.25 13H2.75ZM6.00191 20.4383C5.64111 20.1762 5.32382 19.8589 5.06168 19.4981L3.84815 20.3798C4.20281 20.8679 4.63209 21.2972 5.12023 21.6518L6.00191 20.4383ZM19.9383 19.4981C19.6762 19.8589 19.3589 20.1762 18.9981 20.4383L19.8798 21.6518C20.3679 21.2972 20.7972 20.8679 21.1518 20.3798L19.9383 19.4981ZM22.25 13C22.25 11.1418 22.251 9.68798 22.1263 8.53648C22 7.37094 21.7377 6.42656 21.1518 5.62023L19.9383 6.50191C20.3074 7.00992 20.5225 7.66013 20.635 8.69804C20.749 9.74999 20.75 11.1084 20.75 13H22.25ZM18.9981 5.56168C19.3589 5.82382 19.6762 6.14111 19.9383 6.50191L21.1518 5.62023C20.7972 5.13209 20.3679 4.70281 19.8798 4.34815L18.9981 5.56168ZM4.25 13C4.25 11.1084 4.25103 9.74999 4.365 8.69804C4.47745 7.66013 4.69259 7.00992 5.06168 6.50191L3.84815 5.62023C3.26232 6.42656 3.00001 7.37094 2.87373 8.53648C2.74897 9.68798 2.75 11.1418 2.75 13H4.25ZM5.12023 4.34815C4.63209 4.70281 4.20281 5.13209 3.84815 5.62023L5.06168 6.50191C5.32382 6.14111 5.64111 5.82382 6.00191 5.56168L5.12023 4.34815ZM19.6005 15.3208C17.1401 15.7105 15.2105 17.6401 14.8208 20.1005L16.3023 20.3352C16.5904 18.5166 18.0166 17.0904 19.8352 16.8023L19.6005 15.3208ZM10.25 5V4.02893H8.75V5H10.25ZM10.25 4.02893V2H8.75V4.02893H10.25ZM12.5 3.25C11.3352 3.25 10.3342 3.24991 9.47432 3.27937L9.52568 4.77849C10.3544 4.75009 11.3269 4.75 12.5 4.75V3.25ZM9.47432 3.27937C7.60087 3.34356 6.2239 3.5463 5.12023 4.34815L6.00191 5.56168C6.70746 5.04907 7.67075 4.84204 9.52568 4.77849L9.47432 3.27937ZM16.25 5V4.02893H14.75V5H16.25ZM16.25 4.02893V2H14.75V4.02893H16.25ZM12.5 4.75C13.6731 4.75 14.6456 4.75009 15.4743 4.77849L15.5257 3.27937C14.6658 3.24991 13.6648 3.25 12.5 3.25V4.75ZM15.4743 4.77849C17.3292 4.84204 18.2925 5.04907 18.9981 5.56168L19.8798 4.34815C18.7761 3.5463 17.3991 3.34356 15.5257 3.27937L15.4743 4.77849ZM21.4711 15.25C20.5888 15.25 20.0579 15.2484 19.6005 15.3208L19.8352 16.8023C20.147 16.7529 20.5338 16.75 21.4711 16.75L21.4711 15.25ZM20.75 13C20.75 14.1731 20.7499 15.1456 20.7215 15.9743L22.2206 16.0257C22.2501 15.1658 22.25 14.1648 22.25 13H20.75ZM20.7215 15.9743C20.658 17.8292 20.4509 18.7925 19.9383 19.4981L21.1518 20.3798C21.9537 19.2761 22.1564 17.8991 22.2206 16.0257L20.7215 15.9743ZM16.25 21.9711C16.25 21.0338 16.2529 20.647 16.3023 20.3352L14.8208 20.1005C14.7484 20.5579 14.75 21.0888 14.75 21.9711L16.25 21.9711ZM12.5 22.75C13.6648 22.75 14.6658 22.7501 15.5257 22.7206L15.4743 21.2215C14.6456 21.2499 13.6731 21.25 12.5 21.25V22.75ZM15.5257 22.7206C17.3991 22.6564 18.7761 22.4537 19.8798 21.6518L18.9981 20.4383C18.2925 20.9509 17.3292 21.158 15.4743 21.2215L15.5257 22.7206Z" fill="#1D2126"/>
<path d="M8.5 9C8.5 9.55228 8.05228 10 7.5 10C6.94772 10 6.5 9.55228 6.5 9C6.5 8.44772 6.94772 8 7.5 8C8.05228 8 8.5 8.44772 8.5 9Z" fill="#1D2126"/>
<path d="M8.5 13C8.5 13.5523 8.05228 14 7.5 14C6.94772 14 6.5 13.5523 6.5 13C6.5 12.4477 6.94772 12 7.5 12C8.05228 12 8.5 12.4477 8.5 13Z" fill="#1D2126"/>
<path d="M13.5 9C13.5 9.55228 13.0523 10 12.5 10C11.9477 10 11.5 9.55228 11.5 9C11.5 8.44772 11.9477 8 12.5 8C13.0523 8 13.5 8.44772 13.5 9Z" fill="#1D2126"/>
<path d="M13.5 13C13.5 13.5523 13.0523 14 12.5 14C11.9477 14 11.5 13.5523 11.5 13C11.5 12.4477 11.9477 12 12.5 12C13.0523 12 13.5 12.4477 13.5 13Z" fill="#1D2126"/>
<path d="M13.5 17C13.5 17.5523 13.0523 18 12.5 18C11.9477 18 11.5 17.5523 11.5 17C11.5 16.4477 11.9477 16 12.5 16C13.0523 16 13.5 16.4477 13.5 17Z" fill="#1D2126"/>
<path d="M18.5 9C18.5 9.55228 18.0523 10 17.5 10C16.9477 10 16.5 9.55228 16.5 9C16.5 8.44772 16.9477 8 17.5 8C18.0523 8 18.5 8.44772 18.5 9Z" fill="#1D2126"/>
<path d="M18.5 13C18.5 13.5523 18.0523 14 17.5 14C16.9477 14 16.5 13.5523 16.5 13C16.5 12.4477 16.9477 12 17.5 12C18.0523 12 18.5 12.4477 18.5 13Z" fill="#1D2126"/>
<path d="M8.5 17C8.5 17.5523 8.05228 18 7.5 18C6.94772 18 6.5 17.5523 6.5 17C6.5 16.4477 6.94772 16 7.5 16C8.05228 16 8.5 16.4477 8.5 17Z" fill="#1D2126"/>
</svg>
