<svg width="24" height="24" viewBox="0 0 24 24" fill="none" xmlns="http://www.w3.org/2000/svg">
<path d="M10.1654 8.27078C10.6458 6.82963 12.5471 6.52109 13.4585 7.73638C13.9924 8.44827 13.9552 9.43671 13.3692 10.1064L12.45 11.1569C11.5958 12.1331 11.125 13.3862 11.125 14.6834V15C11.125 15.4832 11.5168 15.875 12 15.875C12.4832 15.875 12.875 15.4832 12.875 15V14.6834C12.875 13.8101 13.192 12.9665 13.767 12.3093L14.6862 11.2588C15.8167 9.96678 15.8886 8.0598 14.8585 6.68638C13.1001 4.34176 9.432 4.93701 8.50521 7.71738L8.1699 8.7233C8.01709 9.18175 8.26485 9.67728 8.7233 9.8301C9.18175 9.98291 9.67728 9.73515 9.8301 9.2767L10.1654 8.27078ZM12 1.125C5.9939 1.125 1.125 5.9939 1.125 12C1.125 18.0061 5.9939 22.875 12 22.875C18.0061 22.875 22.875 18.0061 22.875 12C22.875 5.9939 18.0061 1.125 12 1.125ZM2.875 12C2.875 6.9604 6.9604 2.875 12 2.875C17.0396 2.875 21.125 6.9604 21.125 12C21.125 17.0396 17.0396 21.125 12 21.125C6.9604 21.125 2.875 17.0396 2.875 12ZM12 19.125C12.6213 19.125 13.125 18.6213 13.125 18C13.125 17.3787 12.6213 16.875 12 16.875C11.3787 16.875 10.875 17.3787 10.875 18C10.875 18.6213 11.3787 19.125 12 19.125Z" fill="#747B8D" stroke="#747B8D" stroke-width="0.25"/>
</svg>
