<svg width="24" height="24" viewBox="0 0 24 24" fill="none" xmlns="http://www.w3.org/2000/svg">
<path fill-rule="evenodd" clip-rule="evenodd" d="M4.5 2H8.38889C9.7696 2 10.8889 3.11929 10.8889 4.5V19.5C10.8889 20.8807 9.7696 22 8.38889 22H4.5C3.11929 22 2 20.8807 2 19.5V4.5C2 3.11929 3.11929 2 4.5 2ZM8.38889 20.3333C8.84662 20.3273 9.21624 19.9577 9.22222 19.5V4.5C9.21624 4.04226 8.84662 3.67265 8.38889 3.66667H4.5C4.04226 3.67265 3.67265 4.04226 3.66667 4.5V19.5C3.67265 19.9577 4.04226 20.3273 4.5 20.3333H8.38889Z" fill="#747B8D"/>
<path fill-rule="evenodd" clip-rule="evenodd" d="M15.6111 13.1111H19.5C20.8807 13.1111 22 14.2304 22 15.6111V19.5C22 20.8807 20.8807 22 19.5 22H15.6111C14.2304 22 13.1111 20.8807 13.1111 19.5V15.6111C13.1111 14.2304 14.2304 13.1111 15.6111 13.1111ZM19.5 20.3333C19.9577 20.3274 20.3274 19.9577 20.3333 19.5V15.6111C20.3274 15.1534 19.9577 14.7838 19.5 14.7778H15.6111C15.1534 14.7838 14.7838 15.1534 14.7778 15.6111V19.5C14.7838 19.9577 15.1534 20.3274 15.6111 20.3333H19.5Z" fill="#747B8D"/>
<path fill-rule="evenodd" clip-rule="evenodd" d="M15.6111 2H19.5C20.8807 2 22 3.11929 22 4.5V8.38889C22 9.7696 20.8807 10.8889 19.5 10.8889H15.6111C14.2304 10.8889 13.1111 9.7696 13.1111 8.38889V4.5C13.1111 3.11929 14.2304 2 15.6111 2ZM19.5 9.22222C19.9577 9.21624 20.3274 8.84662 20.3333 8.38889V4.5C20.3274 4.04226 19.9577 3.67265 19.5 3.66667H15.6111C15.1534 3.67265 14.7838 4.04226 14.7778 4.5V8.38889C14.7838 8.84662 15.1534 9.21624 15.6111 9.22222H19.5Z" fill="#747B8D"/>
<path fill-rule="evenodd" clip-rule="evenodd" d="M4.5 2H8.38889C9.7696 2 10.8889 3.11929 10.8889 4.5V19.5C10.8889 20.8807 9.7696 22 8.38889 22H4.5C3.11929 22 2 20.8807 2 19.5V4.5C2 3.11929 3.11929 2 4.5 2ZM8.38889 20.3333C8.84662 20.3273 9.21624 19.9577 9.22222 19.5V4.5C9.21624 4.04226 8.84662 3.67265 8.38889 3.66667H4.5C4.04226 3.67265 3.67265 4.04226 3.66667 4.5V19.5C3.67265 19.9577 4.04226 20.3273 4.5 20.3333H8.38889Z" stroke="#747B8D" stroke-width="0.25"/>
<path fill-rule="evenodd" clip-rule="evenodd" d="M15.6111 13.1111H19.5C20.8807 13.1111 22 14.2304 22 15.6111V19.5C22 20.8807 20.8807 22 19.5 22H15.6111C14.2304 22 13.1111 20.8807 13.1111 19.5V15.6111C13.1111 14.2304 14.2304 13.1111 15.6111 13.1111ZM19.5 20.3333C19.9577 20.3274 20.3274 19.9577 20.3333 19.5V15.6111C20.3274 15.1534 19.9577 14.7838 19.5 14.7778H15.6111C15.1534 14.7838 14.7838 15.1534 14.7778 15.6111V19.5C14.7838 19.9577 15.1534 20.3274 15.6111 20.3333H19.5Z" stroke="#747B8D" stroke-width="0.25"/>
<path fill-rule="evenodd" clip-rule="evenodd" d="M15.6111 2H19.5C20.8807 2 22 3.11929 22 4.5V8.38889C22 9.7696 20.8807 10.8889 19.5 10.8889H15.6111C14.2304 10.8889 13.1111 9.7696 13.1111 8.38889V4.5C13.1111 3.11929 14.2304 2 15.6111 2ZM19.5 9.22222C19.9577 9.21624 20.3274 8.84662 20.3333 8.38889V4.5C20.3274 4.04226 19.9577 3.67265 19.5 3.66667H15.6111C15.1534 3.67265 14.7838 4.04226 14.7778 4.5V8.38889C14.7838 8.84662 15.1534 9.21624 15.6111 9.22222H19.5Z" stroke="#747B8D" stroke-width="0.25"/>
</svg>
